%FSLAX34Y34*%
G04 Gerber Fmt 3.4, Leading zero omitted, Abs format*
G04 (created by PCBNEW (2014-01-30 BZR 4648)-product) date Wed 16 Apr 2014 10:53:14 PM EDT*
%MOIN*%
G01*
G70*
G90*
G04 APERTURE LIST*
%ADD10C,0.005906*%
%ADD11C,0.075000*%
%ADD12C,0.180000*%
%ADD13R,0.039700X0.110600*%
%ADD14R,0.098700X0.118400*%
%ADD15C,0.055400*%
%ADD16R,0.232600X0.134200*%
%ADD17R,0.100000X0.164000*%
%ADD18R,0.100000X0.060000*%
%ADD19R,0.030000X0.080000*%
%ADD20R,0.080000X0.030000*%
%ADD21R,0.126300X0.090900*%
%ADD22R,0.055000X0.075000*%
%ADD23R,0.045000X0.065000*%
%ADD24R,0.065000X0.045000*%
%ADD25R,0.075000X0.075000*%
%ADD26C,0.085000*%
%ADD27R,0.098700X0.236500*%
%ADD28R,0.080000X0.080000*%
%ADD29C,0.080000*%
%ADD30R,0.051400X0.051400*%
%ADD31R,0.082000X0.110000*%
%ADD32O,0.082000X0.110000*%
%ADD33R,0.110000X0.082000*%
%ADD34O,0.110000X0.082000*%
%ADD35C,0.090000*%
%ADD36R,0.090000X0.090000*%
%ADD37R,0.094800X0.088100*%
%ADD38R,0.031800X0.060200*%
%ADD39R,0.120000X0.120000*%
%ADD40C,0.120000*%
G04 APERTURE END LIST*
G54D10*
G54D11*
X76050Y-28400D03*
X76050Y-29400D03*
X76050Y-30400D03*
X76050Y-31400D03*
X76050Y-32400D03*
X76050Y-33400D03*
X76050Y-34400D03*
X76050Y-35400D03*
X76050Y-36400D03*
X76050Y-37400D03*
X76050Y-38400D03*
X76050Y-39400D03*
X76050Y-40400D03*
X76050Y-41400D03*
X76050Y-42400D03*
X76050Y-43400D03*
X77050Y-43400D03*
X77050Y-42400D03*
X77050Y-41400D03*
X77050Y-40400D03*
X77050Y-39400D03*
X77050Y-38400D03*
X77050Y-37400D03*
X77050Y-36400D03*
X77050Y-35400D03*
X77050Y-34400D03*
X77050Y-33400D03*
X77050Y-32400D03*
X77050Y-31400D03*
X77050Y-30400D03*
X77050Y-29400D03*
X77050Y-28400D03*
X72050Y-28400D03*
X72050Y-29400D03*
X72050Y-30400D03*
X72050Y-31400D03*
X72050Y-32400D03*
X72050Y-33400D03*
X72050Y-34400D03*
X72050Y-35400D03*
X72050Y-36400D03*
X72050Y-37400D03*
X72050Y-38400D03*
X72050Y-39400D03*
X72050Y-40400D03*
X72050Y-41400D03*
X72050Y-42400D03*
X72050Y-43400D03*
X73050Y-43400D03*
X73050Y-42400D03*
X73050Y-41400D03*
X73050Y-40400D03*
X73050Y-39400D03*
X73050Y-38400D03*
X73050Y-37400D03*
X73050Y-36400D03*
X73050Y-35400D03*
X73050Y-34400D03*
X73050Y-33400D03*
X73050Y-32400D03*
X73050Y-31400D03*
X73050Y-30400D03*
X73050Y-29400D03*
X73050Y-28400D03*
X75050Y-28400D03*
X75050Y-29400D03*
X75050Y-30400D03*
X75050Y-31400D03*
X75050Y-32400D03*
X75050Y-33400D03*
X75050Y-34400D03*
X75050Y-35400D03*
X75050Y-36400D03*
X75050Y-37400D03*
X75050Y-38400D03*
X75050Y-39400D03*
X75050Y-40400D03*
X75050Y-41400D03*
X75050Y-42400D03*
X75050Y-43400D03*
X74050Y-43400D03*
X74050Y-42400D03*
X74050Y-41400D03*
X74050Y-40400D03*
X74050Y-39400D03*
X74050Y-38400D03*
X74050Y-37400D03*
X74050Y-36400D03*
X74050Y-35400D03*
X74050Y-34400D03*
X74050Y-33400D03*
X74050Y-32400D03*
X74050Y-31400D03*
X74050Y-30400D03*
X74050Y-29400D03*
X74050Y-28400D03*
X70050Y-28400D03*
X70050Y-29400D03*
X70050Y-30400D03*
X70050Y-31400D03*
X70050Y-32400D03*
X70050Y-33400D03*
X70050Y-34400D03*
X70050Y-35400D03*
X70050Y-36400D03*
X70050Y-37400D03*
X70050Y-38400D03*
X70050Y-39400D03*
X70050Y-40400D03*
X70050Y-41400D03*
X70050Y-42400D03*
X70050Y-43400D03*
X71050Y-43400D03*
X71050Y-42400D03*
X71050Y-41400D03*
X71050Y-40400D03*
X71050Y-39400D03*
X71050Y-38400D03*
X71050Y-37400D03*
X71050Y-36400D03*
X71050Y-35400D03*
X71050Y-34400D03*
X71050Y-33400D03*
X71050Y-32400D03*
X71050Y-31400D03*
X71050Y-30400D03*
X71050Y-29400D03*
X71050Y-28400D03*
X69050Y-28400D03*
X69050Y-29400D03*
X69050Y-30400D03*
X69050Y-31400D03*
X69050Y-32400D03*
X69050Y-33400D03*
X69050Y-34400D03*
X69050Y-35400D03*
X69050Y-36400D03*
X69050Y-37400D03*
X69050Y-38400D03*
X69050Y-39400D03*
X69050Y-40400D03*
X69050Y-41400D03*
X69050Y-42400D03*
X69050Y-43400D03*
X68050Y-43400D03*
X68050Y-42400D03*
X68050Y-41400D03*
X68050Y-40400D03*
X68050Y-39400D03*
X68050Y-38400D03*
X68050Y-37400D03*
X68050Y-36400D03*
X68050Y-35400D03*
X68050Y-34400D03*
X68050Y-33400D03*
X68050Y-32400D03*
X68050Y-31400D03*
X68050Y-30400D03*
X68050Y-29400D03*
X68050Y-28400D03*
G54D12*
X94550Y-7400D03*
G54D13*
X67180Y-8333D03*
X66865Y-8333D03*
X66550Y-8333D03*
X66235Y-8333D03*
X65920Y-8333D03*
G54D14*
X68302Y-8294D03*
X68302Y-6775D03*
X64798Y-8294D03*
X64798Y-6775D03*
G54D15*
X67416Y-7310D03*
X65684Y-7310D03*
G54D16*
X58750Y-43250D03*
X58750Y-40250D03*
G54D17*
X58200Y-14400D03*
G54D18*
X60800Y-14400D03*
X60800Y-13500D03*
X60800Y-15300D03*
G54D19*
X73490Y-9200D03*
X73295Y-9200D03*
X73100Y-9200D03*
X72900Y-9200D03*
X72705Y-9200D03*
X72510Y-9200D03*
X72310Y-9200D03*
X72115Y-9200D03*
X71920Y-9200D03*
X71720Y-9200D03*
X71525Y-9200D03*
X73490Y-13800D03*
X73295Y-13800D03*
X73100Y-13800D03*
X72900Y-13800D03*
X72705Y-13800D03*
X72510Y-13800D03*
X72310Y-13800D03*
X72115Y-13800D03*
X71920Y-13800D03*
X71720Y-13800D03*
X71525Y-13800D03*
G54D20*
X75300Y-10025D03*
X75300Y-10220D03*
X75300Y-10420D03*
X75300Y-10615D03*
X75300Y-10810D03*
X75300Y-11010D03*
X75300Y-11205D03*
X75300Y-11400D03*
X75300Y-11600D03*
X75300Y-11795D03*
X75300Y-11990D03*
X70700Y-11990D03*
X70700Y-11795D03*
X70700Y-11600D03*
X70700Y-11400D03*
X70700Y-11205D03*
X70700Y-11010D03*
X70700Y-10810D03*
X70700Y-10615D03*
X70700Y-10420D03*
X70700Y-10220D03*
X70700Y-10025D03*
X70700Y-12190D03*
X70700Y-12385D03*
X70700Y-12580D03*
X70700Y-12780D03*
X70700Y-12975D03*
X75300Y-12975D03*
X75300Y-12780D03*
X75300Y-12580D03*
X75300Y-12385D03*
X75300Y-12190D03*
G54D19*
X73690Y-13800D03*
X73885Y-13800D03*
X74080Y-13800D03*
X74280Y-13800D03*
X74475Y-13800D03*
X73690Y-9200D03*
X73885Y-9200D03*
X74080Y-9200D03*
X74280Y-9200D03*
X74475Y-9200D03*
G54D21*
X64050Y-38555D03*
X64050Y-40445D03*
G54D22*
X62175Y-37950D03*
X62925Y-37950D03*
X64425Y-41500D03*
X63675Y-41500D03*
G54D23*
X62240Y-41530D03*
X62840Y-41530D03*
X65650Y-11800D03*
X65050Y-11800D03*
X65700Y-17200D03*
X65100Y-17200D03*
G54D24*
X63100Y-16950D03*
X63100Y-16350D03*
X63100Y-18050D03*
X63100Y-17450D03*
G54D23*
X62240Y-42270D03*
X62840Y-42270D03*
G54D24*
X69775Y-12925D03*
X69775Y-12325D03*
G54D23*
X74800Y-15000D03*
X74200Y-15000D03*
X76300Y-9950D03*
X76900Y-9950D03*
X71700Y-14620D03*
X71100Y-14620D03*
X69250Y-7250D03*
X69850Y-7250D03*
G54D24*
X65230Y-10420D03*
X65230Y-9820D03*
G54D23*
X86700Y-36500D03*
X87300Y-36500D03*
X63150Y-25100D03*
X63750Y-25100D03*
X63150Y-25850D03*
X63750Y-25850D03*
X64700Y-28450D03*
X64100Y-28450D03*
X62100Y-28450D03*
X62700Y-28450D03*
G54D24*
X58500Y-20750D03*
X58500Y-20150D03*
X59700Y-20750D03*
X59700Y-20150D03*
X60900Y-20750D03*
X60900Y-20150D03*
X62100Y-20750D03*
X62100Y-20150D03*
G54D23*
X62850Y-43000D03*
X62250Y-43000D03*
G54D24*
X64550Y-42450D03*
X64550Y-43050D03*
G54D23*
X69250Y-6650D03*
X69850Y-6650D03*
X90700Y-9000D03*
X91300Y-9000D03*
X86700Y-9000D03*
X87300Y-9000D03*
X90700Y-14500D03*
X91300Y-14500D03*
X86700Y-14500D03*
X87300Y-14500D03*
X90700Y-25550D03*
X91300Y-25550D03*
X86600Y-25550D03*
X87200Y-25550D03*
X90700Y-31000D03*
X91300Y-31000D03*
X86700Y-31000D03*
X87300Y-31000D03*
X90700Y-36500D03*
X91300Y-36500D03*
X90700Y-20000D03*
X91300Y-20000D03*
X86700Y-20000D03*
X87300Y-20000D03*
G54D24*
X64530Y-10420D03*
X64530Y-9820D03*
X63800Y-43050D03*
X63800Y-42450D03*
G54D23*
X68100Y-19450D03*
X68700Y-19450D03*
X69350Y-19450D03*
X69950Y-19450D03*
G54D24*
X67370Y-9820D03*
X67370Y-10420D03*
X66650Y-9820D03*
X66650Y-10420D03*
X65930Y-9820D03*
X65930Y-10420D03*
G54D25*
X70900Y-22950D03*
G54D11*
X71900Y-22950D03*
X72900Y-22950D03*
X73900Y-22950D03*
X74900Y-22950D03*
X75900Y-22950D03*
G54D25*
X64900Y-22950D03*
G54D11*
X65900Y-22950D03*
X66900Y-22950D03*
X67900Y-22950D03*
X68900Y-22950D03*
X69900Y-22950D03*
G54D25*
X70900Y-24950D03*
G54D11*
X71900Y-24950D03*
X72900Y-24950D03*
X73900Y-24950D03*
X74900Y-24950D03*
X75900Y-24950D03*
G54D25*
X65900Y-24950D03*
G54D11*
X66900Y-24950D03*
X67900Y-24950D03*
X68900Y-24950D03*
X69900Y-24950D03*
G54D25*
X75650Y-8600D03*
G54D11*
X76650Y-8600D03*
X77650Y-8600D03*
X78650Y-8600D03*
G54D25*
X67900Y-20950D03*
G54D11*
X68900Y-20950D03*
X69900Y-20950D03*
X70900Y-20950D03*
G54D25*
X72900Y-20950D03*
G54D11*
X73900Y-20950D03*
X74900Y-20950D03*
X75900Y-20950D03*
G54D25*
X60900Y-26950D03*
G54D11*
X61900Y-26950D03*
X62900Y-26950D03*
X63900Y-26950D03*
G54D25*
X66400Y-35450D03*
G54D11*
X66400Y-34450D03*
X66400Y-33450D03*
G54D25*
X66400Y-29950D03*
G54D11*
X66400Y-30950D03*
X66400Y-31950D03*
G54D25*
X78000Y-11000D03*
G54D11*
X78000Y-12000D03*
G54D25*
X78000Y-16500D03*
G54D11*
X78000Y-17500D03*
G54D25*
X78000Y-22050D03*
G54D11*
X78000Y-23050D03*
G54D25*
X78000Y-27500D03*
G54D11*
X78000Y-28500D03*
G54D25*
X78000Y-33000D03*
G54D11*
X78000Y-34000D03*
G54D25*
X78000Y-38500D03*
G54D11*
X78000Y-39500D03*
G54D26*
X60400Y-33950D03*
X63400Y-33950D03*
X59400Y-33450D03*
X59400Y-30450D03*
G54D27*
X66500Y-16350D03*
X66500Y-12650D03*
G54D28*
X59900Y-27950D03*
G54D29*
X58900Y-27950D03*
X59900Y-26950D03*
X58900Y-26950D03*
G54D30*
X61500Y-20745D03*
X61500Y-20155D03*
X60300Y-20745D03*
X60300Y-20155D03*
X59100Y-20745D03*
X59100Y-20155D03*
X57900Y-20745D03*
X57900Y-20155D03*
G54D31*
X80500Y-13000D03*
G54D32*
X81500Y-13000D03*
X82500Y-13000D03*
X83500Y-13000D03*
X83500Y-10000D03*
X82500Y-10000D03*
X81500Y-10000D03*
X80500Y-10000D03*
G54D31*
X80500Y-18500D03*
G54D32*
X81500Y-18500D03*
X82500Y-18500D03*
X83500Y-18500D03*
X83500Y-15500D03*
X82500Y-15500D03*
X81500Y-15500D03*
X80500Y-15500D03*
G54D31*
X80500Y-29500D03*
G54D32*
X81500Y-29500D03*
X82500Y-29500D03*
X83500Y-29500D03*
X83500Y-26500D03*
X82500Y-26500D03*
X81500Y-26500D03*
X80500Y-26500D03*
G54D31*
X80500Y-35000D03*
G54D32*
X81500Y-35000D03*
X82500Y-35000D03*
X83500Y-35000D03*
X83500Y-32000D03*
X82500Y-32000D03*
X81500Y-32000D03*
X80500Y-32000D03*
G54D31*
X80500Y-40500D03*
G54D32*
X81500Y-40500D03*
X82500Y-40500D03*
X83500Y-40500D03*
X83500Y-37500D03*
X82500Y-37500D03*
X81500Y-37500D03*
X80500Y-37500D03*
G54D31*
X80500Y-24000D03*
G54D32*
X81500Y-24000D03*
X82500Y-24000D03*
X83500Y-24000D03*
X83500Y-21000D03*
X82500Y-21000D03*
X81500Y-21000D03*
X80500Y-21000D03*
G54D33*
X61900Y-29450D03*
G54D34*
X61900Y-30450D03*
X61900Y-31450D03*
X61900Y-32450D03*
X64900Y-32450D03*
X64900Y-31450D03*
X64900Y-30450D03*
X64900Y-29450D03*
G54D35*
X58000Y-10850D03*
G54D36*
X63000Y-10850D03*
G54D35*
X58000Y-12050D03*
G54D36*
X63000Y-12050D03*
G54D35*
X66800Y-38000D03*
G54D36*
X66800Y-43000D03*
G54D11*
X66400Y-26450D03*
X66400Y-28450D03*
X65550Y-43000D03*
X65550Y-41000D03*
X60400Y-30450D03*
X60400Y-32450D03*
X62000Y-18400D03*
X62000Y-16400D03*
X62000Y-13400D03*
X62000Y-15400D03*
G54D22*
X70925Y-9050D03*
X70175Y-9050D03*
G54D37*
X62550Y-39750D03*
G54D38*
X62550Y-40695D03*
X62353Y-40695D03*
X62156Y-40695D03*
X62747Y-40695D03*
X62944Y-40695D03*
X62944Y-38805D03*
X62747Y-38805D03*
X62550Y-38805D03*
X62353Y-38805D03*
X62156Y-38805D03*
G54D35*
X87000Y-21500D03*
X87000Y-22500D03*
G54D36*
X87000Y-23500D03*
G54D35*
X91000Y-21500D03*
X91000Y-22500D03*
G54D36*
X91000Y-23500D03*
G54D35*
X87000Y-38000D03*
X87000Y-39000D03*
G54D36*
X87000Y-40000D03*
G54D35*
X91000Y-38000D03*
X91000Y-39000D03*
G54D36*
X91000Y-40000D03*
G54D35*
X87000Y-32500D03*
X87000Y-33500D03*
G54D36*
X87000Y-34500D03*
G54D35*
X91000Y-32500D03*
X91000Y-33500D03*
G54D36*
X91000Y-34500D03*
G54D35*
X87000Y-27000D03*
X87000Y-28000D03*
G54D36*
X87000Y-29000D03*
G54D35*
X91000Y-27000D03*
X91000Y-28000D03*
G54D36*
X91000Y-29000D03*
G54D35*
X87000Y-16000D03*
X87000Y-17000D03*
G54D36*
X87000Y-18000D03*
G54D35*
X91000Y-16000D03*
X91000Y-17000D03*
G54D36*
X91000Y-18000D03*
G54D35*
X87000Y-10500D03*
X87000Y-11500D03*
G54D36*
X87000Y-12500D03*
G54D35*
X91000Y-10500D03*
X91000Y-11500D03*
G54D36*
X91000Y-12500D03*
G54D35*
X58550Y-17450D03*
G54D36*
X59550Y-17450D03*
G54D35*
X60550Y-17450D03*
G54D39*
X85000Y-40000D03*
G54D40*
X85000Y-38000D03*
G54D39*
X85000Y-34500D03*
G54D40*
X85000Y-32500D03*
G54D39*
X85000Y-29000D03*
G54D40*
X85000Y-27000D03*
G54D39*
X85000Y-18000D03*
G54D40*
X85000Y-16000D03*
G54D39*
X85000Y-12500D03*
G54D40*
X85000Y-10500D03*
G54D39*
X94500Y-10500D03*
G54D40*
X94500Y-12500D03*
G54D39*
X94500Y-16000D03*
G54D40*
X94500Y-18000D03*
G54D39*
X94500Y-21500D03*
G54D40*
X94500Y-23500D03*
G54D39*
X94500Y-27050D03*
G54D40*
X94500Y-29050D03*
G54D39*
X94500Y-32500D03*
G54D40*
X94500Y-34500D03*
G54D39*
X94500Y-38000D03*
G54D40*
X94500Y-40000D03*
G54D39*
X85000Y-23500D03*
G54D40*
X85000Y-21500D03*
G54D25*
X79000Y-21000D03*
G54D11*
X79000Y-24000D03*
G54D25*
X79000Y-37500D03*
G54D11*
X79000Y-40500D03*
G54D25*
X79000Y-32000D03*
G54D11*
X79000Y-35000D03*
G54D25*
X79000Y-26500D03*
G54D11*
X79000Y-29500D03*
G54D25*
X79000Y-15500D03*
G54D11*
X79000Y-18500D03*
G54D25*
X79000Y-10000D03*
G54D11*
X79000Y-13000D03*
G54D39*
X61400Y-7950D03*
G54D40*
X59400Y-7950D03*
G54D35*
X58400Y-33450D03*
G54D36*
X58400Y-29450D03*
G54D24*
X63400Y-30700D03*
X63400Y-31300D03*
G54D39*
X59650Y-35850D03*
G54D40*
X59650Y-37850D03*
G54D24*
X63300Y-20750D03*
X63300Y-20150D03*
G54D30*
X62700Y-20745D03*
X62700Y-20155D03*
G54D25*
X63700Y-18900D03*
G54D39*
X89300Y-7150D03*
G54D40*
X91300Y-7150D03*
G54D12*
X64050Y-35900D03*
X94050Y-42900D03*
M02*
