M48
;DRILL file {Pcbnew (2014-01-30 BZR 4648)-product} date Wed 16 Apr 2014 10:53:16 PM EDT
;FORMAT={-:-/ absolute / inch / decimal}
FMAT,2
INCH,TZ
T1C0.025
T2C0.032
T3C0.040
T4C0.045
T5C0.060
%
G90
G05
M72
T1
X6.Y-2.285
X6.Y-2.345
X6.03Y-1.205
X6.035Y-2.145
X6.04Y-4.15
X6.04Y-4.195
X6.05Y-2.905
X6.09Y-2.14
X6.16Y-2.845
X6.18Y-4.11
X6.255Y-3.975
X6.28Y-3.795
X6.29Y-2.455
X6.32Y-4.11
X6.375Y-1.59
X6.395Y-0.78
X6.4Y-0.625
X6.415Y-4.3
X6.435Y-1.18
X6.47Y-2.505
X6.475Y-1.36
X6.5Y-1.925
X6.535Y-4.005
X6.545Y-1.83
X6.555Y-3.9
X6.565Y-2.095
X6.635Y-2.385
X6.662Y-2.077
X6.666Y-2.029
X6.7Y-1.993
X6.735Y-0.9225
X6.748Y-1.993
X6.8Y-0.995
X6.8Y-1.045
X6.85Y-1.879
X6.905Y-0.8
X6.935Y-1.36
X6.955Y-1.43
X6.9825Y-1.025
X7.006Y-1.391
X7.015Y-0.625
X7.03Y-1.485
X7.034Y-1.355
X7.034Y-2.003
X7.055Y-0.82
X7.06Y-1.593
X7.08Y-1.46
X7.08Y-1.695
X7.084Y-1.855
X7.095Y-1.76
X7.095Y-2.405
X7.1Y-1.629
X7.135Y-0.805
X7.215Y-0.82
X7.27Y-0.825
X7.28Y-1.135
X7.288Y-1.867
X7.29Y-1.075
X7.29Y-1.63
X7.29Y-1.695
X7.292Y-1.255
X7.298Y-1.549
X7.302Y-1.497
X7.31Y-1.31
X7.315Y-0.85
X7.325Y-1.11
X7.358Y-1.147
X7.374Y-1.025
X7.394Y-1.259
X7.4Y-0.855
X7.41Y-1.309
X7.43Y-1.695
X7.47Y-1.63
X7.536Y-1.891
X7.618Y-1.159
X7.652Y-1.123
X7.6775Y-2.345
X7.685Y-2.51
X7.74Y-2.385
X7.765Y-2.4325
X7.8175Y-1.3075
X8.095Y-2.545
X8.415Y-1.41
X8.415Y-1.955
X8.415Y-3.05
X8.42Y-3.6
X8.425Y-0.855
X8.425Y-2.505
X8.43Y-4.185
X8.43Y-4.235
X8.48Y-4.185
X8.48Y-4.235
X8.68Y-4.18
X9.22Y-0.805
X9.27Y-0.805
T2
X5.94Y-3.045
X5.94Y-3.345
X6.04Y-3.045
X6.04Y-3.245
X6.04Y-3.395
X6.09Y-2.695
X6.19Y-2.695
X6.19Y-2.945
X6.19Y-3.045
X6.19Y-3.145
X6.19Y-3.245
X6.2Y-1.34
X6.2Y-1.54
X6.2Y-1.64
X6.2Y-1.84
X6.29Y-2.695
X6.34Y-3.395
X6.37Y-1.89
X6.39Y-2.695
X6.49Y-2.295
X6.49Y-2.945
X6.49Y-3.045
X6.49Y-3.145
X6.49Y-3.245
X6.555Y-4.1
X6.555Y-4.3
X6.59Y-2.295
X6.59Y-2.495
X6.64Y-2.645
X6.64Y-2.845
X6.64Y-2.995
X6.64Y-3.095
X6.64Y-3.195
X6.64Y-3.345
X6.64Y-3.445
X6.64Y-3.545
X6.69Y-2.295
X6.69Y-2.495
X6.79Y-2.095
X6.79Y-2.295
X6.79Y-2.495
X6.805Y-2.84
X6.805Y-2.94
X6.805Y-3.04
X6.805Y-3.14
X6.805Y-3.24
X6.805Y-3.34
X6.805Y-3.44
X6.805Y-3.54
X6.805Y-3.64
X6.805Y-3.74
X6.805Y-3.84
X6.805Y-3.94
X6.805Y-4.04
X6.805Y-4.14
X6.805Y-4.24
X6.805Y-4.34
X6.89Y-2.095
X6.89Y-2.295
X6.89Y-2.495
X6.905Y-2.84
X6.905Y-2.94
X6.905Y-3.04
X6.905Y-3.14
X6.905Y-3.24
X6.905Y-3.34
X6.905Y-3.44
X6.905Y-3.54
X6.905Y-3.64
X6.905Y-3.74
X6.905Y-3.84
X6.905Y-3.94
X6.905Y-4.04
X6.905Y-4.14
X6.905Y-4.24
X6.905Y-4.34
X6.99Y-2.095
X6.99Y-2.295
X6.99Y-2.495
X7.005Y-2.84
X7.005Y-2.94
X7.005Y-3.04
X7.005Y-3.14
X7.005Y-3.24
X7.005Y-3.34
X7.005Y-3.44
X7.005Y-3.54
X7.005Y-3.64
X7.005Y-3.74
X7.005Y-3.84
X7.005Y-3.94
X7.005Y-4.04
X7.005Y-4.14
X7.005Y-4.24
X7.005Y-4.34
X7.09Y-2.095
X7.09Y-2.295
X7.09Y-2.495
X7.105Y-2.84
X7.105Y-2.94
X7.105Y-3.04
X7.105Y-3.14
X7.105Y-3.24
X7.105Y-3.34
X7.105Y-3.44
X7.105Y-3.54
X7.105Y-3.64
X7.105Y-3.74
X7.105Y-3.84
X7.105Y-3.94
X7.105Y-4.04
X7.105Y-4.14
X7.105Y-4.24
X7.105Y-4.34
X7.19Y-2.295
X7.19Y-2.495
X7.205Y-2.84
X7.205Y-2.94
X7.205Y-3.04
X7.205Y-3.14
X7.205Y-3.24
X7.205Y-3.34
X7.205Y-3.44
X7.205Y-3.54
X7.205Y-3.64
X7.205Y-3.74
X7.205Y-3.84
X7.205Y-3.94
X7.205Y-4.04
X7.205Y-4.14
X7.205Y-4.24
X7.205Y-4.34
X7.29Y-2.095
X7.29Y-2.295
X7.29Y-2.495
X7.305Y-2.84
X7.305Y-2.94
X7.305Y-3.04
X7.305Y-3.14
X7.305Y-3.24
X7.305Y-3.34
X7.305Y-3.44
X7.305Y-3.54
X7.305Y-3.64
X7.305Y-3.74
X7.305Y-3.84
X7.305Y-3.94
X7.305Y-4.04
X7.305Y-4.14
X7.305Y-4.24
X7.305Y-4.34
X7.39Y-2.095
X7.39Y-2.295
X7.39Y-2.495
X7.405Y-2.84
X7.405Y-2.94
X7.405Y-3.04
X7.405Y-3.14
X7.405Y-3.24
X7.405Y-3.34
X7.405Y-3.44
X7.405Y-3.54
X7.405Y-3.64
X7.405Y-3.74
X7.405Y-3.84
X7.405Y-3.94
X7.405Y-4.04
X7.405Y-4.14
X7.405Y-4.24
X7.405Y-4.34
X7.49Y-2.095
X7.49Y-2.295
X7.49Y-2.495
X7.505Y-2.84
X7.505Y-2.94
X7.505Y-3.04
X7.505Y-3.14
X7.505Y-3.24
X7.505Y-3.34
X7.505Y-3.44
X7.505Y-3.54
X7.505Y-3.64
X7.505Y-3.74
X7.505Y-3.84
X7.505Y-3.94
X7.505Y-4.04
X7.505Y-4.14
X7.505Y-4.24
X7.505Y-4.34
X7.565Y-0.86
X7.59Y-2.095
X7.59Y-2.295
X7.59Y-2.495
X7.605Y-2.84
X7.605Y-2.94
X7.605Y-3.04
X7.605Y-3.14
X7.605Y-3.24
X7.605Y-3.34
X7.605Y-3.44
X7.605Y-3.54
X7.605Y-3.64
X7.605Y-3.74
X7.605Y-3.84
X7.605Y-3.94
X7.605Y-4.04
X7.605Y-4.14
X7.605Y-4.24
X7.605Y-4.34
X7.665Y-0.86
X7.705Y-2.84
X7.705Y-2.94
X7.705Y-3.04
X7.705Y-3.14
X7.705Y-3.24
X7.705Y-3.34
X7.705Y-3.44
X7.705Y-3.54
X7.705Y-3.64
X7.705Y-3.74
X7.705Y-3.84
X7.705Y-3.94
X7.705Y-4.04
X7.705Y-4.14
X7.705Y-4.24
X7.705Y-4.34
X7.765Y-0.86
X7.8Y-1.1
X7.8Y-1.2
X7.8Y-1.65
X7.8Y-1.75
X7.8Y-2.205
X7.8Y-2.305
X7.8Y-2.75
X7.8Y-2.85
X7.8Y-3.3
X7.8Y-3.4
X7.8Y-3.85
X7.8Y-3.95
X7.865Y-0.86
X7.9Y-1.
X7.9Y-1.3
X7.9Y-1.55
X7.9Y-1.85
X7.9Y-2.1
X7.9Y-2.4
X7.9Y-2.65
X7.9Y-2.95
X7.9Y-3.2
X7.9Y-3.5
X7.9Y-3.75
X7.9Y-4.05
X8.05Y-1.
X8.05Y-1.3
X8.05Y-1.55
X8.05Y-1.85
X8.05Y-2.1
X8.05Y-2.4
X8.05Y-2.65
X8.05Y-2.95
X8.05Y-3.2
X8.05Y-3.5
X8.05Y-3.75
X8.05Y-4.05
X8.15Y-1.
X8.15Y-1.3
X8.15Y-1.55
X8.15Y-1.85
X8.15Y-2.1
X8.15Y-2.4
X8.15Y-2.65
X8.15Y-2.95
X8.15Y-3.2
X8.15Y-3.5
X8.15Y-3.75
X8.15Y-4.05
X8.25Y-1.
X8.25Y-1.3
X8.25Y-1.55
X8.25Y-1.85
X8.25Y-2.1
X8.25Y-2.4
X8.25Y-2.65
X8.25Y-2.95
X8.25Y-3.2
X8.25Y-3.5
X8.25Y-3.75
X8.25Y-4.05
X8.35Y-1.
X8.35Y-1.3
X8.35Y-1.55
X8.35Y-1.85
X8.35Y-2.1
X8.35Y-2.4
X8.35Y-2.65
X8.35Y-2.95
X8.35Y-3.2
X8.35Y-3.5
X8.35Y-3.75
X8.35Y-4.05
T3
X5.84Y-2.945
X5.84Y-3.345
X5.89Y-2.695
X5.89Y-2.795
X5.99Y-2.695
X5.99Y-2.795
X8.7Y-1.05
X8.7Y-1.15
X8.7Y-1.25
X8.7Y-1.6
X8.7Y-1.7
X8.7Y-1.8
X8.7Y-2.15
X8.7Y-2.25
X8.7Y-2.35
X8.7Y-2.7
X8.7Y-2.8
X8.7Y-2.9
X8.7Y-3.25
X8.7Y-3.35
X8.7Y-3.45
X8.7Y-3.8
X8.7Y-3.9
X8.7Y-4.
X9.1Y-1.05
X9.1Y-1.15
X9.1Y-1.25
X9.1Y-1.6
X9.1Y-1.7
X9.1Y-1.8
X9.1Y-2.15
X9.1Y-2.25
X9.1Y-2.35
X9.1Y-2.7
X9.1Y-2.8
X9.1Y-2.9
X9.1Y-3.25
X9.1Y-3.35
X9.1Y-3.45
X9.1Y-3.8
X9.1Y-3.9
X9.1Y-4.
T4
X5.8Y-1.085
X5.8Y-1.205
X5.855Y-1.745
X5.955Y-1.745
X6.055Y-1.745
X6.3Y-1.085
X6.3Y-1.205
X6.68Y-3.8
X6.68Y-4.3
T5
X5.94Y-0.795
X5.965Y-3.585
X5.965Y-3.785
X6.14Y-0.795
X8.5Y-1.05
X8.5Y-1.25
X8.5Y-1.6
X8.5Y-1.8
X8.5Y-2.15
X8.5Y-2.35
X8.5Y-2.7
X8.5Y-2.9
X8.5Y-3.25
X8.5Y-3.45
X8.5Y-3.8
X8.5Y-4.
X8.93Y-0.715
X9.13Y-0.715
X9.45Y-1.05
X9.45Y-1.25
X9.45Y-1.6
X9.45Y-1.8
X9.45Y-2.15
X9.45Y-2.35
X9.45Y-2.705
X9.45Y-2.905
X9.45Y-3.25
X9.45Y-3.45
X9.45Y-3.8
X9.45Y-4.
T0
M30
